<mxfile host="Electron" modified="2023-11-14T14:20:16.657Z" agent="Mozilla/5.0 (Windows NT 10.0; Win64; x64) AppleWebKit/537.36 (KHTML, like Gecko) draw.io/22.0.2 Chrome/114.0.5735.289 Electron/25.8.4 Safari/537.36" etag="HLs9tQYphRbtcLz6nxUR" version="22.0.2" type="device">
  <diagram name="PÃ¡gina-1" id="6lZOWeblVVt6lVMaOBDH">
    <mxGraphModel dx="880" dy="532" grid="1" gridSize="10" guides="1" tooltips="1" connect="1" arrows="1" fold="1" page="1" pageScale="1" pageWidth="827" pageHeight="1169" math="0" shadow="0">
      <root>
        <mxCell id="0" />
        <mxCell id="1" parent="0" />
        <mxCell id="IpAdPZcUvrhz0_bsffYj-20" value="" style="shape=folder;fontStyle=1;spacingTop=10;tabWidth=40;tabHeight=14;tabPosition=left;html=1;whiteSpace=wrap;" parent="1" vertex="1">
          <mxGeometry x="99" y="120" width="631" height="280" as="geometry" />
        </mxCell>
        <mxCell id="IpAdPZcUvrhz0_bsffYj-21" value="&lt;font style=&quot;font-size: 20px;&quot;&gt;&lt;b&gt;services&lt;/b&gt;&lt;/font&gt;" style="text;html=1;align=center;verticalAlign=middle;resizable=0;points=[];autosize=1;" parent="1" vertex="1">
          <mxGeometry x="71" y="80" width="100" height="40" as="geometry" />
        </mxCell>
        <mxCell id="gT9Z2h1ChM1K_UnpmGv--1" value="CarrinhoService" style="swimlane;fontStyle=1;align=center;verticalAlign=top;childLayout=stackLayout;horizontal=1;startSize=26;horizontalStack=0;resizeParent=1;resizeParentMax=0;resizeLast=0;collapsible=1;marginBottom=0;whiteSpace=wrap;html=1;fillColor=#f5f5f5;strokeColor=#666666;gradientColor=#b3b3b3;" parent="1" vertex="1">
          <mxGeometry x="120" y="150" width="180" height="90" as="geometry" />
        </mxCell>
        <mxCell id="HBz4chdSLw39id_YeElX-1" value="CatalogoService" style="swimlane;fontStyle=1;align=center;verticalAlign=top;childLayout=stackLayout;horizontal=1;startSize=26;horizontalStack=0;resizeParent=1;resizeParentMax=0;resizeLast=0;collapsible=1;marginBottom=0;whiteSpace=wrap;html=1;fillColor=#f5f5f5;strokeColor=#666666;gradientColor=#b3b3b3;" vertex="1" parent="1">
          <mxGeometry x="323.5" y="150" width="180" height="90" as="geometry" />
        </mxCell>
        <mxCell id="HBz4chdSLw39id_YeElX-2" value="LoginService" style="swimlane;fontStyle=1;align=center;verticalAlign=top;childLayout=stackLayout;horizontal=1;startSize=26;horizontalStack=0;resizeParent=1;resizeParentMax=0;resizeLast=0;collapsible=1;marginBottom=0;whiteSpace=wrap;html=1;fillColor=#f5f5f5;strokeColor=#666666;gradientColor=#b3b3b3;" vertex="1" parent="1">
          <mxGeometry x="530" y="150" width="180" height="90" as="geometry" />
        </mxCell>
        <mxCell id="HBz4chdSLw39id_YeElX-3" value="PedidoService" style="swimlane;fontStyle=1;align=center;verticalAlign=top;childLayout=stackLayout;horizontal=1;startSize=26;horizontalStack=0;resizeParent=1;resizeParentMax=0;resizeLast=0;collapsible=1;marginBottom=0;whiteSpace=wrap;html=1;fillColor=#f5f5f5;strokeColor=#666666;gradientColor=#b3b3b3;" vertex="1" parent="1">
          <mxGeometry x="120" y="270" width="180" height="90" as="geometry" />
        </mxCell>
        <mxCell id="HBz4chdSLw39id_YeElX-4" value="RegistraPagamentoService" style="swimlane;fontStyle=1;align=center;verticalAlign=top;childLayout=stackLayout;horizontal=1;startSize=26;horizontalStack=0;resizeParent=1;resizeParentMax=0;resizeLast=0;collapsible=1;marginBottom=0;whiteSpace=wrap;html=1;fillColor=#f5f5f5;strokeColor=#666666;gradientColor=#b3b3b3;" vertex="1" parent="1">
          <mxGeometry x="323.5" y="270" width="180" height="90" as="geometry" />
        </mxCell>
        <mxCell id="HBz4chdSLw39id_YeElX-5" value="UploadService" style="swimlane;fontStyle=1;align=center;verticalAlign=top;childLayout=stackLayout;horizontal=1;startSize=26;horizontalStack=0;resizeParent=1;resizeParentMax=0;resizeLast=0;collapsible=1;marginBottom=0;whiteSpace=wrap;html=1;fillColor=#f5f5f5;strokeColor=#666666;gradientColor=#b3b3b3;" vertex="1" parent="1">
          <mxGeometry x="530" y="270" width="180" height="90" as="geometry" />
        </mxCell>
      </root>
    </mxGraphModel>
  </diagram>
</mxfile>
